<?xml version="1.0" standalone="no"?>
<!DOCTYPE svg PUBLIC "-//W3C//DTD SVG 20010904//EN"
 "http://www.w3.org/TR/2001/REC-SVG-20010904/DTD/svg10.dtd">
<svg version="1.0" xmlns="http://www.w3.org/2000/svg"
 width="151.000000pt" height="149.000000pt" viewBox="0 0 151.000000 149.000000"
 preserveAspectRatio="xMidYMid meet">

<g transform="translate(0.000000,149.000000) scale(0.100000,-0.100000)"
fill="#000000" stroke="none">
<path d="M712 1338 c-18 -18 -15 -95 3 -102 8 -3 15 -16 15 -30 0 -14 5 -28
10 -31 6 -4 10 7 10 27 0 22 -7 37 -20 46 -21 13 -27 56 -10 67 6 4 10 -6 10
-24 0 -16 5 -33 10 -36 6 -4 10 9 10 33 0 44 -19 69 -38 50z"/>
<path d="M701 1199 c0 -25 4 -39 14 -43 10 -4 15 -19 15 -49 0 -27 6 -49 15
-57 8 -7 15 -23 15 -36 0 -12 5 -26 10 -29 6 -4 10 8 10 28 0 22 -6 37 -15 41
-10 4 -15 20 -15 53 0 37 -5 51 -19 60 -11 7 -21 25 -24 40 -3 24 -4 22 -6 -8z"/>
<path d="M560 1163 c-30 -15 -80 -52 -111 -82 -70 -70 -100 -142 -107 -257 -5
-88 1 -100 44 -90 20 5 24 13 25 44 1 41 3 35 28 -56 l12 -42 30 16 c17 8 33
13 36 10 6 -5 -91 -56 -107 -56 -6 0 -17 15 -25 33 -11 25 -15 28 -20 15 -7
-17 21 -82 33 -76 4 2 38 20 75 42 71 40 76 60 12 50 l-30 -5 25 16 c24 16 24
16 3 12 -27 -6 -29 1 -5 19 16 12 15 13 -4 8 -18 -5 -21 -1 -21 25 0 37 1 36
-40 44 l-33 6 -1 -47 c0 -42 -2 -45 -12 -24 -13 29 4 142 30 196 22 47 29 45
25 -4 -5 -54 14 -52 23 3 14 84 74 165 153 206 55 30 26 24 -38 -6z"/>
<path d="M886 1161 c93 -54 225 -224 196 -253 -11 -11 -16 -5 -45 52 -13 27
-16 29 -12 10 2 -14 5 -39 5 -57 0 -31 1 -32 35 -26 50 8 44 -12 -7 -25 l-43
-11 43 3 c30 3 42 0 42 -9 0 -9 -16 -15 -47 -18 -43 -3 -41 -4 16 -5 l64 -2
-7 53 c-16 117 -105 237 -218 290 -75 35 -86 34 -22 -2z"/>
<path d="M703 1110 c0 -25 2 -35 4 -22 2 12 2 32 0 45 -2 12 -4 2 -4 -23z"/>
<path d="M666 1097 c-7 -22 -4 -33 12 -50 11 -12 22 -31 25 -42 3 -13 5 -10 6
11 0 17 -5 37 -13 44 -8 6 -16 24 -18 38 l-4 27 -8 -28z"/>
<path d="M760 1098 c0 -32 15 -45 24 -21 4 9 0 23 -9 32 -13 14 -15 13 -15
-11z"/>
<path d="M660 1012 c0 -16 9 -37 20 -47 14 -13 20 -31 20 -62 0 -41 -12 -57
-23 -30 -4 9 -8 8 -16 -3 -9 -12 -11 -10 -11 11 0 36 -26 58 -45 38 -26 -27
-23 -79 5 -79 11 0 20 -4 20 -10 0 -5 -9 -10 -20 -10 -11 0 -20 -4 -20 -10 0
-5 14 -10 30 -10 23 0 30 4 30 20 0 18 7 20 70 20 68 0 70 1 70 25 0 18 -5 25
-20 25 -15 0 -20 7 -20 29 0 17 -4 33 -10 36 -6 4 -10 -13 -10 -44 0 -28 -4
-51 -10 -51 -5 0 -10 25 -10 55 0 40 -4 57 -15 61 -8 4 -15 17 -15 29 0 13 -4
27 -10 30 -6 4 -10 -6 -10 -23z m-30 -132 c0 -22 -16 -35 -25 -20 -9 14 4 52
16 45 5 -4 9 -15 9 -25z"/>
<path d="M730 1008 c0 -23 7 -37 21 -46 14 -9 18 -19 14 -32 -4 -12 -2 -20 4
-20 16 0 13 46 -4 60 -8 7 -15 23 -15 36 0 12 -4 26 -10 29 -6 4 -10 -7 -10
-27z"/>
<path d="M660 931 c0 -17 5 -31 10 -31 6 0 10 11 10 24 0 14 -4 28 -10 31 -6
4 -10 -7 -10 -24z"/>
<path d="M822 918 c-17 -17 -15 -83 3 -98 9 -8 15 -30 15 -56 0 -24 4 -44 10
-44 15 0 11 186 -4 199 -9 7 -16 7 -24 -1z m25 -52 c-1 -45 -17 -35 -17 10 0
19 4 33 9 30 5 -3 9 -21 8 -40z"/>
<path d="M390 896 c0 -8 -3 -21 -6 -30 -4 -11 -1 -16 11 -16 23 0 46 26 39 44
-8 20 -44 21 -44 2z m30 -5 c0 -6 -4 -13 -10 -16 -5 -3 -10 1 -10 9 0 9 5 16
10 16 6 0 10 -4 10 -9z"/>
<path d="M660 810 c0 -5 5 -10 10 -10 6 0 10 5 10 10 0 6 -4 10 -10 10 -5 0
-10 -4 -10 -10z"/>
<path d="M701 793 c-1 -26 -5 -33 -21 -33 -11 0 -20 5 -20 10 0 15 -40 12 -56
-5 -14 -13 -14 -17 0 -30 16 -17 56 -20 56 -5 0 6 35 10 85 10 l85 0 0 29 c0
17 -4 33 -10 36 -6 4 -10 -5 -10 -19 0 -19 -5 -26 -20 -26 -22 0 -27 15 -7 23
6 3 -4 5 -23 6 -28 0 -31 -2 -15 -9 19 -7 19 -8 2 -15 -22 -9 -34 1 -40 35 -4
21 -4 20 -6 -7z m-64 -45 c-3 -8 -6 -5 -6 6 -1 11 2 17 5 13 3 -3 4 -12 1 -19z"/>
<path d="M994 789 c-9 -15 14 -29 49 -29 16 0 27 -5 27 -14 0 -11 -8 -12 -42
-5 -42 10 -68 6 -68 -9 0 -8 125 -62 143 -62 22 0 -8 19 -48 30 -25 7 -48 17
-51 21 -7 12 29 11 60 -1 21 -8 26 -6 31 11 4 12 12 18 21 15 10 -4 14 3 14
24 l0 30 -64 0 c-37 0 -68 -5 -72 -11z m106 -9 c0 -5 -13 -10 -30 -10 -16 0
-30 5 -30 10 0 6 14 10 30 10 17 0 30 -4 30 -10z"/>
<path d="M110 760 c0 -17 7 -46 15 -66 18 -44 8 -50 -68 -40 l-52 7 25 -26
c13 -14 45 -39 72 -56 26 -17 48 -34 48 -38 0 -5 -9 -16 -20 -26 -26 -24 -25
-31 6 -60 14 -13 23 -28 20 -34 -10 -16 41 -67 96 -94 162 -81 366 -170 421
-184 83 -21 156 -7 296 56 58 27 142 63 186 80 128 52 193 101 182 140 -3 14
1 21 18 25 33 8 39 35 15 61 -28 30 -26 36 23 67 23 15 55 40 70 56 l29 30
-66 -5 c-36 -3 -66 -3 -66 -1 0 3 7 25 15 48 15 43 20 90 9 90 -3 0 -31 -23
-62 -51 -32 -27 -85 -64 -120 -80 -72 -35 -85 -54 -54 -80 l22 -17 -30 -22
c-37 -26 -38 -45 -3 -64 l27 -14 -46 -21 c-26 -11 -50 -21 -53 -21 -4 0 -64
-25 -133 -56 -147 -67 -186 -73 -262 -46 -82 29 -330 144 -330 152 0 4 9 10
20 13 28 7 25 32 -6 56 -26 20 -26 22 -9 41 25 27 15 43 -47 75 -29 15 -83 52
-120 82 l-68 54 0 -31z m91 -62 c19 -14 57 -38 86 -53 50 -25 75 -45 55 -45
-5 0 -36 16 -68 35 -32 19 -68 35 -81 35 -21 0 -23 -4 -23 -49 0 -28 -5 -53
-10 -56 -6 -4 -34 11 -63 32 l-52 38 52 5 c63 7 69 12 50 42 -8 12 -18 36 -21
52 l-7 28 24 -18 c14 -11 40 -31 58 -46z m1174 40 c-4 -13 -13 -36 -21 -52 -8
-16 -14 -33 -14 -37 0 -4 26 -9 58 -11 l57 -3 -50 -37 c-27 -21 -55 -38 -62
-38 -7 0 -13 20 -15 53 l-3 52 -33 -2 c-20 0 -56 -16 -87 -37 -30 -20 -57 -31
-60 -26 -3 5 25 25 62 44 37 19 91 53 118 75 28 23 51 41 53 41 2 0 0 -10 -3
-22z m-1118 -108 c81 -47 87 -76 8 -46 -56 22 -90 49 -81 64 10 17 15 16 73
-18z m1053 9 c0 -15 -14 -27 -55 -45 -31 -14 -63 -23 -72 -20 -20 8 -21 7 52
50 68 42 75 43 75 15z m-1084 -54 c16 -8 23 -15 17 -15 -7 0 -15 -17 -19 -38
-3 -21 -14 -49 -24 -62 -16 -21 -21 -23 -44 -12 -32 14 -33 26 -1 64 14 16 25
37 25 47 0 15 8 31 16 31 1 0 15 -7 30 -15z m1094 -27 c0 -9 12 -30 26 -47 21
-26 24 -34 14 -46 -7 -8 -23 -15 -35 -15 -18 0 -27 9 -39 43 -28 78 -28 83 -4
94 25 11 38 2 38 -29z m-992 -18 c17 -11 32 -25 32 -30 0 -12 -55 17 -72 38
-15 18 3 15 40 -8z m892 16 c0 -8 -82 -57 -88 -52 -7 7 -5 9 38 35 33 20 50
26 50 17z m-924 -32 c19 -15 34 -30 34 -35 0 -19 -28 -7 -60 26 -40 41 -24 47
26 9z m954 17 c0 -15 -73 -71 -83 -64 -6 4 7 21 29 40 40 34 54 40 54 24z
m-959 -64 c20 -15 65 -39 100 -53 35 -14 114 -49 174 -77 100 -47 116 -52 180
-52 63 0 81 5 170 47 55 26 136 61 180 78 44 17 97 45 119 62 30 25 40 28 47
17 5 -8 9 -18 9 -22 0 -5 14 -22 31 -38 l32 -30 -24 -25 c-34 -37 -90 -68
-195 -107 -50 -20 -122 -51 -160 -70 -88 -44 -141 -59 -216 -58 -62 0 -105 16
-338 120 -158 71 -177 82 -207 114 l-27 27 26 28 c15 15 32 40 38 57 6 16 14
25 18 19 4 -5 23 -22 43 -37z"/>
<path d="M255 419 c3 -4 1 -10 -5 -14 -13 -8 -13 -25 1 -25 5 0 7 6 4 13 -4 6
0 4 8 -6 15 -18 15 -18 21 0 10 30 7 38 -14 39 -11 1 -17 -2 -15 -7z"/>
<path d="M1223 422 c-8 -5 -8 -12 2 -25 12 -16 13 -16 19 -1 8 21 -5 36 -21
26z"/>
<path d="M302 385 c-17 -37 -14 -45 4 -12 9 16 14 31 11 33 -2 2 -9 -7 -15
-21z"/>
<path d="M1190 405 c0 -5 5 -17 10 -25 5 -8 10 -10 10 -5 0 6 -5 17 -10 25 -5
8 -10 11 -10 5z"/>
<path d="M321 369 c-7 -12 -10 -23 -8 -26 3 -3 11 5 17 17 15 28 8 35 -9 9z"/>
<path d="M1147 383 c-2 -5 -2 -14 -1 -20 1 -7 2 -18 3 -25 1 -9 4 -9 13 0 8 8
8 15 0 25 -7 8 -9 17 -5 20 3 4 4 7 0 7 -3 0 -8 -3 -10 -7z"/>
<path d="M345 360 c-8 -13 4 -32 16 -25 12 8 12 35 0 35 -6 0 -13 -4 -16 -10z"/>
<path d="M1106 362 c-2 -4 -1 -14 4 -22 7 -11 9 -9 7 8 -1 24 -3 26 -11 14z"/>
<path d="M380 350 c0 -6 5 -8 11 -4 8 4 9 -1 4 -17 -7 -24 -7 -24 9 -4 l16 20
-6 -20 c-5 -19 -5 -19 6 -2 14 21 13 22 -17 31 -15 5 -23 3 -23 -4z"/>
<path d="M1074 334 c3 -9 6 -18 6 -20 0 -2 4 -4 9 -4 5 0 7 9 4 20 -3 11 -10
20 -15 20 -6 0 -7 -7 -4 -16z"/>
<path d="M1040 319 c13 -23 33 -25 28 -2 -2 9 -11 17 -20 19 -15 2 -16 -1 -8
-17z"/>
<path d="M435 320 c-7 -11 2 -30 14 -30 5 0 11 9 14 20 5 21 -16 29 -28 10z"/>
<path d="M515 301 c3 -23 0 -29 -11 -24 -7 3 -14 3 -14 0 0 -3 7 -7 15 -11 10
-3 20 6 31 27 16 30 16 31 0 18 -14 -12 -16 -12 -10 3 3 9 1 16 -4 16 -6 0 -9
-13 -7 -29z"/>
<path d="M1015 310 c7 -22 6 -24 -9 -11 -11 9 -20 11 -27 4 -17 -17 13 -33 38
-20 20 11 20 14 6 32 -15 19 -15 19 -8 -5z m-15 -20 c0 -5 -2 -10 -4 -10 -3 0
-8 5 -11 10 -3 6 -1 10 4 10 6 0 11 -4 11 -10z"/>
<path d="M940 307 c0 -5 5 -18 11 -30 l10 -22 -19 22 c-11 13 -24 18 -31 13
-10 -5 -9 -9 3 -13 9 -4 16 -11 16 -17 0 -6 -4 -8 -10 -5 -5 3 -10 1 -10 -4 0
-15 31 -13 52 2 15 12 15 15 -3 37 -10 14 -19 21 -19 17z"/>
<path d="M544 275 c-8 -21 6 -41 17 -24 12 19 11 39 -1 39 -6 0 -13 -7 -16
-15z"/>
<path d="M583 273 c-3 -10 -8 -21 -10 -25 -2 -4 10 -14 26 -22 26 -14 30 -14
35 1 4 9 1 21 -5 27 -9 8 -11 7 -6 -5 3 -9 0 -16 -9 -16 -8 0 -14 4 -14 9 0 5
-5 6 -12 2 -7 -4 -8 -3 -4 5 4 6 12 9 17 6 5 -4 9 -1 9 4 0 6 -5 11 -11 11 -5
0 -7 5 -4 10 3 6 4 10 0 10 -3 0 -8 -8 -12 -17z"/>
<path d="M851 261 c-10 -7 -11 -13 -2 -27 6 -11 11 -13 11 -6 0 7 4 11 9 8 5
-4 7 3 4 14 -3 11 -6 20 -7 20 0 0 -7 -4 -15 -9z"/>
<path d="M710 235 c-15 -18 -6 -45 13 -45 20 0 40 27 33 45 -7 19 -30 19 -46
0z m38 -12 c-5 -25 -28 -28 -28 -4 0 12 6 21 16 21 9 0 14 -7 12 -17z"/>
<path d="M812 233 c2 -9 9 -18 16 -19 7 -1 8 0 3 2 -6 3 -7 12 -4 20 3 8 0 14
-7 14 -6 0 -10 -8 -8 -17z"/>
<path d="M770 229 c0 -5 5 -7 11 -3 8 4 9 -1 4 -16 -5 -15 -4 -20 4 -16 16 11
13 46 -4 46 -8 0 -15 -5 -15 -11z"/>
<path d="M651 214 c0 -11 3 -14 6 -6 3 7 2 16 -1 19 -3 4 -6 -2 -5 -13z"/>
<path d="M940 715 c0 -10 142 -76 153 -72 7 3 1 9 -13 15 -14 6 -51 22 -82 36
-32 14 -58 24 -58 21z"/>
<path d="M934 685 c11 -8 16 -15 10 -15 -5 -1 6 -14 25 -30 26 -22 38 -27 47
-19 7 6 18 8 24 4 16 -10 -9 -37 -28 -30 -12 4 -13 3 -2 -10 27 -32 -8 -12
-60 35 -30 27 -46 47 -35 43 16 -5 17 -3 8 7 -7 8 -17 9 -27 3 -13 -7 -4 -21
53 -77 l68 -68 32 44 c37 50 37 50 -63 99 -65 32 -81 36 -52 14z m61 -35 c3
-5 2 -10 -4 -10 -5 0 -13 5 -16 10 -3 6 -2 10 4 10 5 0 13 -4 16 -10z"/>
<path d="M502 668 c-27 -17 -31 -23 -20 -35 10 -12 8 -18 -12 -33 -21 -16 -26
-17 -33 -4 -8 14 -37 20 -37 7 1 -5 9 -19 20 -31 l20 -24 31 26 31 26 25 -20
c32 -25 40 -25 52 -1 9 17 8 18 -12 13 -20 -5 -21 -4 -7 13 14 16 13 17 -8 11
-29 -10 -28 5 3 34 19 18 22 26 13 32 -18 11 -29 9 -66 -14z m33 -18 c-3 -5
-13 -10 -21 -10 -8 0 -12 5 -9 10 3 6 13 10 21 10 8 0 12 -4 9 -10z"/>
<path d="M581 646 c-9 -10 -8 -15 4 -20 8 -3 15 -4 15 -2 0 3 3 11 6 20 8 20
-9 21 -25 2z"/>
<path d="M866 650 c6 -8 26 -35 46 -60 46 -59 50 -67 39 -74 -5 -4 -24 14 -43
40 -43 60 -47 42 -7 -29 34 -59 36 -59 84 -22 19 15 17 18 -55 88 -40 39 -69
65 -64 57z"/>
<path d="M607 604 c-30 -50 -32 -61 -15 -66 10 -4 10 -10 0 -32 -10 -23 -15
-25 -33 -15 -14 7 -24 8 -31 1 -7 -7 0 -16 22 -27 17 -9 33 -15 34 -13 1 2 9
18 16 36 10 26 18 33 35 30 19 -4 23 3 37 54 17 65 8 80 -11 18 -6 -22 -16
-40 -21 -40 -13 0 -13 4 5 47 18 43 18 40 2 46 -8 3 -24 -13 -40 -39z m21 -19
c-6 -14 -15 -25 -19 -25 -5 0 -3 11 3 25 6 14 15 25 19 25 5 0 3 -11 -3 -25z"/>
<path d="M820 635 c0 -23 75 -175 87 -175 9 0 6 14 -11 48 -39 76 -76 138 -76
127z"/>
<path d="M700 616 c0 -9 7 -16 16 -16 9 0 14 5 12 12 -6 18 -28 21 -28 4z"/>
<path d="M761 583 c-1 -40 -5 -53 -16 -53 -9 0 -15 10 -16 28 -1 15 -7 -5 -13
-45 -8 -53 -14 -70 -23 -65 -10 6 -10 22 -3 67 11 69 12 80 5 73 -3 -3 -14
-40 -24 -81 l-18 -75 21 -6 c47 -13 55 -8 58 36 3 37 7 44 28 48 25 5 25 5 14
65 l-12 60 -1 -52z"/>
<path d="M780 620 c0 -5 5 -31 11 -59 8 -36 14 -48 25 -44 9 3 18 -5 24 -23 8
-20 8 -30 1 -32 -6 -2 -11 -10 -11 -18 0 -10 6 -11 23 -5 12 5 22 12 22 17 0
26 -69 174 -81 174 -8 0 -14 -4 -14 -10z m39 -70 c1 -13 0 -13 -9 0 -5 8 -9
24 -9 35 l0 20 9 -20 c5 -11 9 -27 9 -35z"/>
<path d="M467 552 c-10 -10 -14 -22 -10 -25 7 -8 43 21 43 35 0 14 -16 9 -33
-10z"/>
<path d="M1055 550 c-3 -5 -2 -10 4 -10 5 0 13 5 16 10 3 6 2 10 -4 10 -5 0
-13 -4 -16 -10z"/>
<path d="M496 531 c-15 -17 -13 -31 5 -31 13 0 30 38 20 44 -4 3 -16 -3 -25
-13z"/>
<path d="M610 471 c-12 -24 -13 -34 -1 -27 9 6 22 46 15 46 -2 0 -8 -9 -14
-19z"/>
<path d="M637 473 c-4 -3 -7 -16 -6 -27 0 -19 1 -19 10 3 10 24 8 36 -4 24z"/>
<path d="M798 453 c5 -21 7 -23 10 -9 2 10 0 22 -6 28 -6 6 -7 0 -4 -19z"/>
<path d="M752 445 c0 -16 2 -22 5 -12 2 9 2 23 0 30 -3 6 -5 -1 -5 -18z"/>
<path d="M771 453 c-1 -12 4 -25 9 -28 12 -7 12 2 0 30 -8 19 -9 19 -9 -2z"/>
<path d="M931 427 c-6 -6 -17 -12 -23 -12 -6 0 -13 -6 -15 -12 -3 -9 4 -12 21
-11 14 1 23 4 21 7 -3 2 0 10 7 18 14 18 5 26 -11 10z"/>
<path d="M581 417 c-1 -5 4 -18 10 -29 9 -17 13 -18 20 -7 13 21 11 32 -5 26
-8 -3 -17 -1 -20 6 -2 7 -5 8 -5 4z"/>
<path d="M855 389 c-11 -17 1 -21 15 -4 8 9 8 15 2 15 -6 0 -14 -5 -17 -11z"/>
<path d="M627 383 c-13 -12 -7 -23 11 -22 10 0 12 3 4 6 -6 2 -10 9 -6 14 6
10 0 12 -9 2z"/>
<path d="M666 382 c-3 -5 1 -9 9 -9 8 0 12 4 9 9 -3 4 -7 8 -9 8 -2 0 -6 -4
-9 -8z"/>
<path d="M826 377 c3 -10 9 -15 12 -12 3 3 0 11 -7 18 -10 9 -11 8 -5 -6z"/>
</g>
</svg>
